<?xml version="1.0" encoding="UTF-8" standalone="no"?>
<!-- Generator: Adobe Illustrator 19.2.1, SVG Export Plug-In . SVG Version: 6.00 Build 0)  -->

<svg
   xmlns:dc="http://purl.org/dc/elements/1.1/"
   xmlns:cc="http://creativecommons.org/ns#"
   xmlns:rdf="http://www.w3.org/1999/02/22-rdf-syntax-ns#"
   xmlns:svg="http://www.w3.org/2000/svg"
   xmlns="http://www.w3.org/2000/svg"
   xmlns:sodipodi="http://sodipodi.sourceforge.net/DTD/sodipodi-0.dtd"
   xmlns:inkscape="http://www.inkscape.org/namespaces/inkscape"
   version="1.1"
   id="Capa_1"
   x="0px"
   y="0px"
   viewBox="0 0 1000 999.99997"
   xml:space="preserve"
   inkscape:version="0.91 r13725"
   sodipodi:docname="icono_consultor.svg"
   width="1000"
   height="1000"><metadata
     id="metadata13"><rdf:RDF><cc:Work
         rdf:about=""><dc:format>image/svg+xml</dc:format><dc:type
           rdf:resource="http://purl.org/dc/dcmitype/StillImage" /><dc:title></dc:title></cc:Work></rdf:RDF></metadata><defs
     id="defs11" /><sodipodi:namedview
     pagecolor="#ffffff"
     bordercolor="#666666"
     borderopacity="1"
     objecttolerance="10"
     gridtolerance="10"
     guidetolerance="10"
     inkscape:pageopacity="0"
     inkscape:pageshadow="2"
     inkscape:window-width="1280"
     inkscape:window-height="1000"
     id="namedview9"
     showgrid="false"
     inkscape:zoom="0.28031832"
     inkscape:cx="295.39999"
     inkscape:cy="420.95001"
     inkscape:window-x="-4"
     inkscape:window-y="-4"
     inkscape:window-maximized="1"
     inkscape:current-layer="Capa_1" /><style
     type="text/css"
     id="style3">
	.st0{fill:#FFFFFF;}
</style><g
     id="g5"
     transform="translate(210.47501,76.050381)"><path
       class="st0"
       d="m 590.8,576.9 -0.1,0 c -1.7,-40.3 -18.9,-73.5 -56.6,-96.1 -20.7,-12.4 -43.5,-21.4 -65.3,-32 -21.4,-10.5 -43.4,-20 -64,-32 -17,-9.9 -28,-25.9 -32.2,-45.7 -1.8,-8.3 -0.9,-15.1 5.4,-22.2 16,-18.1 28.5,-38.4 34.1,-62.4 2.8,-12.3 3.5,-25.5 16.8,-32.6 2.6,-1.4 4.5,-5 5.5,-8.1 8.1,-22.8 12.4,-46 8.2,-70.3 -1.9,-11 -2,-22.3 -3.3,-33.4 -2.3,-20 -3.2,-40.3 -7.9,-59.8 -4,-16.6 -16.2,-27.7 -34.3,-30.5 -12.4,-1.9 -21.7,-8.1 -28.7,-18.6 -6.3,-9.5 -15,-13.7 -26.9,-14.6 -8.6,-0.7 -17.8,-4.7 -25,-9.6 -17.7,-12 -23,-12.1 -40.4,0.3 -6.6,4.7 -15.1,9 -22.8,9.3 -13.4,0.5 -22.4,6.2 -29.4,16.5 -6.1,9.1 -14.4,14.6 -25.2,16.2 -21.3,3.1 -34.1,16.7 -38.3,36.3 -3.9,18.1 -4.2,37.1 -5.7,55.7 -0.6,7.6 2.3,16.3 -0.4,22.9 -7.2,17.8 -5,35.4 -2.2,53.3 2.7,17 6.3,33.4 22.8,43.3 1.9,1.2 2.7,5 3.2,7.7 4.8,31.6 19.6,58.3 40,82.3 2.6,3.1 4.1,8.5 3.8,12.7 -1.6,23 -13.5,40.9 -32.6,52.3 -19.5,11.6 -40.5,20.6 -61,30.6 -23.8,11.6 -48.7,21.3 -71.2,34.8 -35.4,21.3 -53.6,53.9 -54,93.7 l 0,0 0,0.2 c 0,2.8 7.8,105.6 9.2,112.5 l 0,0 0,0 c 17.3,85.8 138.2,152.3 284.8,152.3 146.6,0 267.5,-66.5 284.8,-152.3 l 0,0 0,-0.1 c 1.4,-6.9 9.3,-104.5 9.1,-111.4 l -0.2,-1.2 z M 277.2,467.4 c 0,-10.8 8.8,-19.6 19.6,-19.6 10.8,0 19.6,8.8 19.6,19.6 l 0,71.1 -10.3,128.1 -18.5,0 -10.3,-128.1 0,-71.1 z m 42.4,251.8 c 0,12.6 -10.2,22.9 -22.9,22.9 -12.7,0 -22.9,-10.2 -22.9,-22.9 l 0,0 c 0,-12.6 10.2,-22.9 22.9,-22.9 12.7,0 22.9,10.2 22.9,22.9 l 0,0 z"
       id="path7"
       inkscape:connector-curvature="0"
       style="fill:#ffffff" /></g></svg>