<?xml version="1.0" encoding="UTF-8" standalone="no"?><!DOCTYPE svg PUBLIC "-//W3C//DTD SVG 1.1//EN" "http://www.w3.org/Graphics/SVG/1.1/DTD/svg11.dtd"><svg width="100%" height="100%" viewBox="0 0 68 86" version="1.1" xmlns="http://www.w3.org/2000/svg" xmlns:xlink="http://www.w3.org/1999/xlink" xml:space="preserve" xmlns:serif="http://www.serif.com/" style="fill-rule:evenodd;clip-rule:evenodd;stroke-linejoin:round;stroke-miterlimit:1.41421;"><rect id="Mesa-de-trabajo1" serif:id="Mesa de trabajo1" x="0" y="0" width="67.736" height="85.934" style="fill:none;"/><g><path d="M23.389,35.686c1.546,-1.309 2.665,-3.426 2.665,-6.498c0,-2.832 -1.047,-4.807 -2.713,-6.044c-1.547,-1.167 -3.522,-1.715 -6.568,-1.715c-1.834,0 -3.572,0.119 -4.903,0.333l0,15.756c0.903,0.119 2.236,0.239 4.116,0.239c3.14,0.001 5.712,-0.665 7.403,-2.071Zm-7.879,-11.329c0.308,-0.071 0.832,-0.143 1.641,-0.143c3.119,0 5.07,1.762 5.047,5.094c0,3.832 -2.144,5.641 -5.427,5.617c-0.453,0 -0.953,0 -1.261,-0.072l0,-10.496Z" style="fill:black;fill-rule:nonzero;"/><path d="M35.013,37.853c4.688,0 7.877,-3.189 7.877,-8.449c0,-4.427 -2.689,-8.115 -7.616,-8.115c-4.736,0 -7.807,3.593 -7.807,8.401c0,4.568 2.786,8.163 7.546,8.163Zm0.166,-13.685c2.5,0 3.88,2.474 3.88,5.354c0,3.119 -1.405,5.451 -3.856,5.451c-2.426,0 -3.902,-2.213 -3.902,-5.355c-0.002,-3.118 1.426,-5.45 3.878,-5.45Z" style="fill:black;fill-rule:nonzero;"/><path d="M52.703,37.829c1.952,0 3.452,-0.357 4.119,-0.691l-0.548,-2.832c-0.713,0.286 -1.927,0.524 -3.021,0.524c-3.239,0 -5.142,-2.022 -5.142,-5.236c0,-3.569 2.236,-5.306 5.116,-5.306c1.286,0 2.311,0.285 3.047,0.594l0.739,-2.88c-0.644,-0.333 -2.07,-0.714 -3.952,-0.714c-4.855,0 -8.758,3.046 -8.758,8.52c0,4.57 2.856,8.021 8.4,8.021Z" style="fill:black;fill-rule:nonzero;"/><rect x="10.326" y="54.242" width="47.047" height="2.667" style="fill:black;"/><rect x="10.326" y="60.78" width="47.047" height="2.667" style="fill:black;"/><rect x="10.326" y="67.317" width="47.047" height="2.667" style="fill:black;"/><path d="M10.441,85.67l46.988,0c5.434,0 9.84,-4.405 9.84,-9.838l0,-65.656c0,-5.434 -4.406,-9.839 -9.839,-9.839l-46.989,0c-5.434,0 -9.839,4.405 -9.839,9.839l0,65.656c0,5.433 4.405,9.838 9.839,9.838Zm-7.172,-75.494c0,-3.955 3.217,-7.172 7.172,-7.172l46.988,0c3.956,0 7.173,3.217 7.173,7.172l0,65.656c0,3.954 -3.217,7.172 -7.172,7.172l-46.989,0c-3.955,0 -7.172,-3.218 -7.172,-7.172l0,-65.656Z" style="fill:black;fill-rule:nonzero;"/></g></svg>