<?xml version="1.0" encoding="UTF-8" standalone="no"?><!DOCTYPE svg PUBLIC "-//W3C//DTD SVG 1.1//EN" "http://www.w3.org/Graphics/SVG/1.1/DTD/svg11.dtd"><svg width="100%" height="100%" viewBox="0 0 68 87" version="1.1" xmlns="http://www.w3.org/2000/svg" xmlns:xlink="http://www.w3.org/1999/xlink" xml:space="preserve" xmlns:serif="http://www.serif.com/" style="fill-rule:evenodd;clip-rule:evenodd;stroke-linejoin:round;stroke-miterlimit:1.41421;"><rect id="Mesa-de-trabajo1" serif:id="Mesa de trabajo1" x="0" y="0" width="67.945" height="86.611" style="fill:none;"/><g><path d="M19.086,37.969l1.333,-2.902c0.5,-1.119 0.905,-1.952 1.239,-2.88l0.046,0c0.454,0.928 0.834,1.761 1.428,2.88l1.452,2.902l4.19,0l-4.76,-8.21l4.521,-7.83l-4.141,0l-1.356,2.927c-0.406,0.928 -0.714,1.644 -1.095,2.667l-0.047,0c-0.381,-0.906 -0.738,-1.69 -1.214,-2.667l-1.403,-2.927l-4.167,0l4.475,7.924l-4.64,8.116l4.139,0Z" style="fill-rule:nonzero;"/><path d="M40.516,34.924l-6.378,0l0,-12.995l-3.642,0l0,16.04l10.02,0l0,-3.045Z" style="fill-rule:nonzero;"/><path d="M46.567,35.233c-1.547,0 -3.047,-0.5 -4.021,-1l-0.739,3c0.905,0.499 2.713,0.975 4.547,0.975c4.402,0 6.473,-2.285 6.473,-4.975c0,-2.26 -1.332,-3.736 -4.165,-4.782c-2.07,-0.787 -2.975,-1.239 -2.975,-2.262c0,-0.833 0.761,-1.546 2.333,-1.546c1.57,0 2.714,0.452 3.355,0.761l0.811,-2.928c-0.952,-0.428 -2.286,-0.808 -4.095,-0.808c-3.783,0 -6.068,2.093 -6.068,4.832c0,2.332 1.736,3.808 4.403,4.736c1.928,0.689 2.689,1.261 2.689,2.26c0,1.048 -0.881,1.737 -2.548,1.737Z" style="fill-rule:nonzero;"/><path d="M57.6,0.716l-46.989,0c-5.433,0 -9.839,4.405 -9.839,9.839l0,65.654c0,5.435 4.406,9.84 9.839,9.84l46.988,0c5.435,0 9.84,-4.405 9.84,-9.838l0,-65.656c0,-5.434 -4.405,-9.839 -9.839,-9.839Zm7.172,75.495c0,3.954 -3.217,7.172 -7.172,7.172l-46.989,0c-3.955,0 -7.172,-3.218 -7.172,-7.172l0,-65.656c0,-3.955 3.217,-7.172 7.172,-7.172l46.988,0c3.956,0 7.173,3.217 7.173,7.172l0,65.656Z" style="fill-rule:nonzero;"/><rect x="10.496" y="54.621" width="47.047" height="2.667"/><rect x="10.496" y="61.159" width="47.047" height="2.667"/><rect x="10.496" y="67.696" width="47.047" height="2.667"/></g></svg>