<?xml version="1.0" encoding="UTF-8" standalone="no"?>
<svg
   xmlns:dc="http://purl.org/dc/elements/1.1/"
   xmlns:cc="http://creativecommons.org/ns#"
   xmlns:rdf="http://www.w3.org/1999/02/22-rdf-syntax-ns#"
   xmlns:svg="http://www.w3.org/2000/svg"
   xmlns="http://www.w3.org/2000/svg"
   xmlns:sodipodi="http://sodipodi.sourceforge.net/DTD/sodipodi-0.dtd"
   xmlns:inkscape="http://www.inkscape.org/namespaces/inkscape"
   width="64"
   height="64"
   viewBox="0 0 74 74"
   version="1.1"
   id="svg10"
   sodipodi:docname="face3.svg"
   inkscape:version="0.92.1 r15371">
  <metadata
     id="metadata16">
    <rdf:RDF>
      <cc:Work
         rdf:about="">
        <dc:format>image/svg+xml</dc:format>
        <dc:type
           rdf:resource="http://purl.org/dc/dcmitype/StillImage" />
      </cc:Work>
    </rdf:RDF>
  </metadata>
  <defs
     id="defs14" />
  <sodipodi:namedview
     pagecolor="#ffffff"
     bordercolor="#666666"
     borderopacity="1"
     objecttolerance="10"
     gridtolerance="10"
     guidetolerance="10"
     inkscape:pageopacity="0"
     inkscape:pageshadow="2"
     inkscape:window-width="1463"
     inkscape:window-height="713"
     id="namedview12"
     showgrid="false"
     inkscape:zoom="3.6875"
     inkscape:cx="32"
     inkscape:cy="10.64024"
     inkscape:window-x="55"
     inkscape:window-y="88"
     inkscape:window-maximized="0"
     inkscape:current-layer="svg10" />
  <path
     d="M41,3.8a37,37,0,1,0,37,37A37,37,0,0,0,41,3.8Zm0,69a32,32,0,1,1,32-32A32,32,0,0,1,41,72.8Z"
     transform="translate(-4 -3.8)"
     id="path2"
     style="fill:#008000" />
  <path
     d="M53.05,49.68a2.5,2.5,0,0,0-3.53,0,12.06,12.06,0,0,1-17,0A2.5,2.5,0,0,0,29,53.21a17.06,17.06,0,0,0,24.1,0A2.5,2.5,0,0,0,53.05,49.68Z"
     transform="translate(-4 -3.8)"
     id="path4"
     style="fill:#008000" />
  <circle
     cx="23.56"
     cy="28.34"
     r="2.5"
     id="circle6"
     style="fill:#008000" />
  <circle
     cx="50.44"
     cy="28.34"
     r="2.5"
     id="circle8"
     style="fill:#008000" />
</svg>
