<?xml version="1.0" encoding="UTF-8" standalone="no"?>
<!DOCTYPE svg PUBLIC "-//W3C//DTD SVG 1.1//EN" "http://www.w3.org/Graphics/SVG/1.1/DTD/svg11.dtd">
<svg width="100%" height="100%" viewBox="0 0 96 95" version="1.1" xmlns="http://www.w3.org/2000/svg" xmlns:xlink="http://www.w3.org/1999/xlink" xml:space="preserve" xmlns:serif="http://www.serif.com/" style="fill-rule:evenodd;clip-rule:evenodd;stroke-linejoin:round;stroke-miterlimit:1.41421;">
    <g transform="matrix(1.33333,0,0,1.33333,0,0)">
        <g id="Mesa-de-trabajo1" serif:id="Mesa de trabajo1" transform="matrix(0.904189,0,0,0.953496,-8.92531,-11.1514)">
            <rect x="9.871" y="11.695" width="78.827" height="74.415" style="fill:none;"/>
            <g style="fill:#e60000;" transform="matrix(1.10596,0,0,1.04877,-6.13856,-3.56501)">
                <path d="M50,20.7C66.2,20.7 79.3,33.8 79.3,50C79.3,66.2 66.2,79.3 50,79.3C33.8,79.3 20.7,66.2 20.7,50C20.7,33.8 33.8,20.7 50,20.7M50,15C30.7,15 15,30.7 15,50C15,69.3 30.7,85 50,85C69.3,85 85,69.3 85,50C85,30.7 69.3,15 50,15Z" style="fill-rule:nonzero;"/>
                <path d="M54,35.1L53.2,55C53.1,56.6 51.8,57.8 50.3,57.7C48.8,57.6 47.6,56.4 47.6,55L46.8,35.1C46.7,33.1 48.3,31.4 50.3,31.4C52.3,31.4 54,32.9 54,34.9C54,34.9 54,35 54,35.1Z" style="fill-rule:nonzero;"/>
                <circle cx="50.4" cy="65.2" r="3.8"/>
            </g>
        </g>
    </g>
</svg>
