<?xml version="1.0" encoding="utf-8"?>
<svg x="0px" y="0px" viewBox="0 0 100 100" xmlns="http://www.w3.org/2000/svg">
  <path d="M92.5,40H85V22.5c0-0.663-0.263-1.299-0.732-1.768l-15-15C68.799,5.264,68.163,5,67.5,5h-50C16.119,5,15,6.119,15,7.5V40  H7.5C6.119,40,5,41.119,5,42.5v35C5,78.881,6.119,80,7.5,80H15v12.5c0,1.381,1.119,2.5,2.5,2.5h65c1.381,0,2.5-1.119,2.5-2.5V80h7.5  c1.381,0,2.5-1.119,2.5-2.5v-35C95,41.119,93.881,40,92.5,40z M70,13.536L76.465,20H70V13.536z M20,10h45v15h15v15H20V10z M80,90H20  V80h60V90z M90,75H10V45h80V75z" style="fill: rgb(163, 163, 163);"/>
  <path d="M40,62.5v-5c0-4.136-3.364-7.5-7.5-7.5H25v20h7.5C36.636,70,40,66.636,40,62.5z M30,55h2.5c1.378,0,2.5,1.121,2.5,2.5v5  c0,1.379-1.122,2.5-2.5,2.5H30V55z" style="fill: rgb(163, 163, 163);"/>
  <path d="M50,70c4.136,0,7.5-3.364,7.5-7.5v-5c0-4.136-3.364-7.5-7.5-7.5s-7.5,3.364-7.5,7.5v5C42.5,66.636,45.864,70,50,70z   M47.5,57.5c0-1.379,1.122-2.5,2.5-2.5s2.5,1.121,2.5,2.5v5c0,1.379-1.122,2.5-2.5,2.5s-2.5-1.121-2.5-2.5V57.5z" style="fill: rgb(163, 163, 163);"/>
  <path d="M67.5,70H75v-5h-7.5c-1.378,0-2.5-1.121-2.5-2.5v-5c0-1.379,1.122-2.5,2.5-2.5H75v-5h-7.5c-4.136,0-7.5,3.364-7.5,7.5v5  C60,66.636,63.364,70,67.5,70z" style="fill: rgb(163, 163, 163);"/>
  <text x="0" y="115" fill="#000000" font-size="5px" font-weight="bold" font-family="'Helvetica Neue', Helvetica, Arial-Unicode, Arial, Sans-serif" style="white-space: pre;">Created by Arthur Shlain</text>
  <text x="0" y="120" fill="#000000" font-size="5px" font-weight="bold" font-family="'Helvetica Neue', Helvetica, Arial-Unicode, Arial, Sans-serif" style="white-space: pre;">from the Noun Project</text>
</svg>