<?xml version="1.0" encoding="UTF-8" standalone="no"?>
<svg
   xmlns:serif="http://www.serif.com/"
   xmlns:dc="http://purl.org/dc/elements/1.1/"
   xmlns:cc="http://creativecommons.org/ns#"
   xmlns:rdf="http://www.w3.org/1999/02/22-rdf-syntax-ns#"
   xmlns:svg="http://www.w3.org/2000/svg"
   xmlns="http://www.w3.org/2000/svg"
   xmlns:sodipodi="http://sodipodi.sourceforge.net/DTD/sodipodi-0.dtd"
   xmlns:inkscape="http://www.inkscape.org/namespaces/inkscape"
   width="100%"
   height="100%"
   viewBox="0 0 68 86"
   version="1.1"
   xml:space="preserve"
   style="fill-rule:evenodd;clip-rule:evenodd;stroke-linejoin:round;stroke-miterlimit:1.41421;"
   id="svg77"
   sodipodi:docname="file_unknown_icon.svg"
   inkscape:version="0.92.4 (5da689c313, 2019-01-14)"><metadata
     id="metadata83"><rdf:RDF><cc:Work
         rdf:about=""><dc:format>image/svg+xml</dc:format><dc:type
           rdf:resource="http://purl.org/dc/dcmitype/StillImage" /><dc:title></dc:title></cc:Work></rdf:RDF></metadata><defs
     id="defs81" /><sodipodi:namedview
     pagecolor="#ffffff"
     bordercolor="#666666"
     borderopacity="1"
     objecttolerance="10"
     gridtolerance="10"
     guidetolerance="10"
     inkscape:pageopacity="0"
     inkscape:pageshadow="2"
     inkscape:window-width="1920"
     inkscape:window-height="1017"
     id="namedview79"
     showgrid="false"
     inkscape:zoom="2.744186"
     inkscape:cx="34"
     inkscape:cy="43"
     inkscape:window-x="1912"
     inkscape:window-y="-8"
     inkscape:window-maximized="1"
     inkscape:current-layer="svg77" /><rect
     id="Mesa-de-trabajo1"
     serif:id="Mesa de trabajo1"
     x="0"
     y="0"
     width="67.736"
     height="85.934"
     style="fill:none;" /><g
     id="g75"><path
       d="M10.441,85.67l46.988,0c5.434,0 9.84,-4.405 9.84,-9.838l0,-65.656c0,-5.434 -4.406,-9.839 -9.839,-9.839l-46.989,0c-5.434,0 -9.839,4.405 -9.839,9.839l0,65.656c0,5.433 4.405,9.838 9.839,9.838Zm-7.172,-75.494c0,-3.955 3.217,-7.172 7.172,-7.172l46.988,0c3.956,0 7.173,3.217 7.173,7.172l0,65.656c0,3.954 -3.217,7.172 -7.172,7.172l-46.989,0c-3.955,0 -7.172,-3.218 -7.172,-7.172l0,-65.656Z"
       style="fill:black;fill-rule:nonzero;"
       id="path73" /></g><text
     xml:space="preserve"
     style="font-style:normal;font-weight:normal;font-size:40px;line-height:1.25;font-family:sans-serif;letter-spacing:0px;word-spacing:0px;fill:#000000;fill-opacity:1;stroke:none"
     x="23.322035"
     y="43.559319"
     id="text107"><tspan
       sodipodi:role="line"
       id="tspan105"
       x="23.322035"
       y="43.559319"
       style="font-style:normal;font-variant:normal;font-weight:bold;font-stretch:normal;font-size:32px;font-family:sans-serif;-inkscape-font-specification:'sans-serif Bold'">?</tspan></text>
</svg>