<?xml version="1.0" encoding="utf-8"?>
<svg x="0px" y="0px" viewBox="0 0 100 100" xmlns="http://www.w3.org/2000/svg">
  <path d="M92.5,40H85V22.5c0-0.663-0.264-1.299-0.732-1.768l-15-15C68.799,5.264,68.163,5,67.5,5h-50C16.119,5,15,6.119,15,7.5V40  H7.5C6.119,40,5,41.119,5,42.5v35C5,78.881,6.119,80,7.5,80H15v12.5c0,1.381,1.119,2.5,2.5,2.5h65c1.381,0,2.5-1.119,2.5-2.5V80h7.5  c1.381,0,2.5-1.119,2.5-2.5v-35C95,41.119,93.881,40,92.5,40z M70,13.535L76.465,20H70V13.535z M20,10h45v15h15v15H20V10z M80,90H20  V80h60V90z M90,75H10V45h80V75z" style="fill: rgb(163, 163, 163);"/>
  <path d="M31.25,67.5c0-1.9,0.946-3.625,2.5-4.652c1.555,1.029,2.5,2.753,2.5,4.652V70h5v-2.5c0-2.884-1.161-5.547-3.133-7.5  c1.971-1.952,3.133-4.616,3.133-7.5V50h-5v2.5c0,1.9-0.946,3.625-2.5,4.652c-1.555-1.029-2.5-2.753-2.5-4.652V50h-5v2.5  c0,2.884,1.161,5.547,3.133,7.5c-1.971,1.952-3.133,4.616-3.133,7.5V70h5V67.5z" style="fill: rgb(163, 163, 163);"/>
  <polygon points="56.25,65 48.75,65 48.75,50 43.75,50 43.75,70 56.25,70 " style="fill: rgb(163, 163, 163);"/>
  <path d="M73.75,62.5c0-2.757-2.243-5-5-5h-5c0-1.379,1.121-2.5,2.5-2.5h7.5v-5h-7.5c-4.136,0-7.5,3.364-7.5,7.5c0,2.757,2.243,5,5,5  h5c0,1.379-1.121,2.5-2.5,2.5h-7.5v5h7.5C70.386,70,73.75,66.636,73.75,62.5z" style="fill: rgb(163, 163, 163);"/>
  <text x="0" y="115" fill="#000000" font-size="5px" font-weight="bold" font-family="'Helvetica Neue', Helvetica, Arial-Unicode, Arial, Sans-serif" style="white-space: pre;">Created by Arthur Shlain</text>
  <text x="0" y="120" fill="#000000" font-size="5px" font-weight="bold" font-family="'Helvetica Neue', Helvetica, Arial-Unicode, Arial, Sans-serif" style="white-space: pre;">from the Noun Project</text>
</svg>