<?xml version="1.0" encoding="UTF-8" standalone="no"?>
<!-- Created with Inkscape (http://www.inkscape.org/) -->

<svg
   xmlns:dc="http://purl.org/dc/elements/1.1/"
   xmlns:cc="http://creativecommons.org/ns#"
   xmlns:rdf="http://www.w3.org/1999/02/22-rdf-syntax-ns#"
   xmlns:svg="http://www.w3.org/2000/svg"
   xmlns="http://www.w3.org/2000/svg"
   xmlns:sodipodi="http://sodipodi.sourceforge.net/DTD/sodipodi-0.dtd"
   xmlns:inkscape="http://www.inkscape.org/namespaces/inkscape"
   width="210mm"
   height="297mm"
   viewBox="0 0 744.09448819 1052.3622047"
   id="svg10348"
   version="1.1"
   inkscape:version="0.91 r13725"
   sodipodi:docname="form.svg">
  <defs
     id="defs10350" />
  <sodipodi:namedview
     id="base"
     pagecolor="#ffffff"
     bordercolor="#666666"
     borderopacity="1.0"
     inkscape:pageopacity="0.0"
     inkscape:pageshadow="2"
     inkscape:zoom="0.35"
     inkscape:cx="-289.28571"
     inkscape:cy="520"
     inkscape:document-units="px"
     inkscape:current-layer="layer1"
     showgrid="false"
     inkscape:window-width="1920"
     inkscape:window-height="1005"
     inkscape:window-x="-9"
     inkscape:window-y="1041"
     inkscape:window-maximized="1" />
  <metadata
     id="metadata10353">
    <rdf:RDF>
      <cc:Work
         rdf:about="">
        <dc:format>image/svg+xml</dc:format>
        <dc:type
           rdf:resource="http://purl.org/dc/dcmitype/StillImage" />
        <dc:title></dc:title>
      </cc:Work>
    </rdf:RDF>
  </metadata>
  <g
     inkscape:label="Capa 1"
     inkscape:groupmode="layer"
     id="layer1">
    <path
       d="m 671.60807,812.02891 -148.43106,0 0,136.29996 -1.93843,1.90545 -445.32504,0 0,-844.44404 595.69329,0 0,706.23863 z m 31.94735,-769.942687 -659.587908,0 c -17.625007,0 -31.915549,14.036482 -31.915549,31.693246 l 0,908.370341 c 0,17.46626 14.290542,32.10609 31.915549,32.10609 l 489.308148,0 c 7.81216,0 15.43379,-3.0804 21.24528,-8.2885 L 724.73722,853.662 c 6.85942,-6.03381 10.54322,-14.73519 10.54322,-23.81764 l 0,-756.064891 c 0,-17.656764 -14.16352,-31.693246 -31.72502,-31.693246"
       style="fill:#ffffff;fill-opacity:1;fill-rule:nonzero;stroke:none"
       id="path2674"
       inkscape:connector-curvature="0" />
  </g>
</svg>
