<?xml version="1.0" encoding="UTF-8" standalone="no"?>
<!DOCTYPE svg PUBLIC "-//W3C//DTD SVG 1.1//EN" "http://www.w3.org/Graphics/SVG/1.1/DTD/svg11.dtd">
<svg width="100%" height="100%" viewBox="0 0 91 91" version="1.1" xmlns="http://www.w3.org/2000/svg" xmlns:xlink="http://www.w3.org/1999/xlink" xml:space="preserve" xmlns:serif="http://www.serif.com/" style="fill-rule:evenodd;clip-rule:evenodd;stroke-linejoin:round;stroke-miterlimit:1.41421;">
    <g id="Mesa-de-trabajo1" serif:id="Mesa de trabajo1" transform="matrix(0.971401,0,0,1.02931,-2.33929,-4.50772)">
        <rect x="2.408" y="4.379" width="93.446" height="88.129" style="fill:none;"/>
        <g transform="matrix(1.02944,0,0,0.971522,-2.40187,-0.204433)">
            <path d="M50,95C74.8,95 95,74.8 95,50C95,25.2 74.8,5 50,5C25.2,5 5,25.2 5,50C5,74.8 25.2,95 50,95ZM50,11.2C71.4,11.2 88.8,28.6 88.8,50C88.8,71.4 71.4,88.8 50,88.8C28.6,88.8 11.2,71.4 11.2,50C11.2,28.6 28.6,11.2 50,11.2Z" style="fill-rule:nonzero;"/>
        </g>
        <g transform="matrix(1.02944,0,0,0.971522,-2.40187,-0.204433)">
            <path d="M42.5,65.7C43.1,66.2 43.8,66.4 44.5,66.4C45.3,66.4 46.1,66.1 46.7,65.5L73,38.9C74.2,37.7 74.2,35.7 73,34.5C71.8,33.3 69.8,33.3 68.6,34.5L44.3,59.1L33.9,50.3C32.6,49.2 30.6,49.4 29.5,50.7C28.4,52 28.6,54 29.9,55.1L42.5,65.7Z" style="fill-rule:nonzero;"/>
        </g>
    </g>
</svg>
