<svg xmlns:dc="http://purl.org/dc/elements/1.1/" xmlns:cc="http://creativecommons.org/ns#" xmlns:rdf="http://www.w3.org/1999/02/22-rdf-syntax-ns#" xmlns:svg="http://www.w3.org/2000/svg" xmlns="http://www.w3.org/2000/svg" xmlns:sodipodi="http://sodipodi.sourceforge.net/DTD/sodipodi-0.dtd" xmlns:inkscape="http://www.inkscape.org/namespaces/inkscape" version="1.1" x="0px" y="0px" viewBox="0 0 100 125"><g transform="translate(0,-952.36218)"><g transform="translate(-768.15222,1105.0001)" style="" fill="#000000"><path d="m 811.89458,-89.40339 c 2.1795,2.28415 4.8093,3.69432 7.29208,3.97744 2.54298,0.24277 5.22868,-0.59673 8.19795,-3.91112 0.92015,-1.02707 1.92827,-2.2162 3.62395,-2.78427 1.69567,-0.56805 3.73326,-0.21549 5.89993,0.95019 4.13354,3.13892 8.39645,6.31786 12.46275,9.54593 1.93845,1.93845 2.43741,4.49156 1.81197,6.49655 -0.62544,2.00499 -1.96546,3.52366 -3.20412,4.7951 -6.90551,7.19568 -15.0852,10.673 -23.11336,9.45737 -7.75498,-1.34253 -15.2594,-6.77414 -23.57758,-15.09232 -3.57547,-3.57546 -6.36098,-6.36098 -9.8995,-9.89949 -8.31818,-8.31818 -13.74979,-15.8226 -15.09231,-23.57759 -1.59624,-9.5909 3.49885,-17.39765 9.45732,-23.11336 1.27145,-1.23864 2.79012,-2.57867 4.79511,-3.20412 2.00499,-0.62544 4.55809,-0.12649 6.49654,1.81197 3.22808,4.0663 6.40702,8.32923 9.54594,12.46275 1.16567,2.16666 1.51823,4.20425 0.95017,5.89993 -0.56805,1.6957 -1.75719,2.70381 -2.78426,3.62396 -3.31439,2.96926 -4.15388,5.65498 -3.91111,8.19796 0.2831,2.48277 1.69293,5.11291 3.97744,7.29206 m -2.82843,2.82844 c -2.67517,-2.59881 -4.78465,-5.93216 -5.14863,-9.74482 -0.36495,-3.82327 1.22628,-7.96371 5.23702,-11.55677 0.97693,-0.87527 1.50896,-1.47983 1.65724,-1.92241 0.14567,-0.43473 0.18611,-1.06703 -0.64077,-2.62961 l -8.88304,-11.62307 c -1.14515,-1.14514 -1.6046,-1.11119 -2.47483,-0.83973 -0.87032,0.27151 -2.06748,1.16825 -3.18202,2.25394 -7.15931,7.15932 -9.40867,13.22314 -8.30854,19.57807 1.1002,6.35485 5.89123,13.35996 13.9654,21.43413 3.31407,3.31407 6.95793,6.95794 9.89949,9.89951 8.07416,8.07415 15.07929,12.86518 21.43415,13.96538 6.35491,1.10012 12.41872,-1.14921 19.57804,-8.30854 1.08569,-1.11454 1.9824,-2.3117 2.25393,-3.18202 0.27149,-0.87022 0.30547,-1.32967 -0.83971,-2.47484 l -11.62308,-8.88302 c -1.56258,-0.82687 -2.19487,-0.78645 -2.62958,-0.64082 -0.44261,0.14821 -1.04718,0.68026 -1.92241,1.65725 -3.59305,4.01072 -7.7335,5.60195 -11.55677,5.23701 -3.81267,-0.36397 -7.14594,-2.47354 -9.74481,-5.14862" style="text-indent:0;text-transform:none;direction:ltr;block-progression:tb;baseline-shift:baseline;color:#000000;enable-background:accumulate;" fill="#000000" fill-opacity="1" stroke="none" marker="none" visibility="visible" display="inline" overflow="visible"/><path d="m 813,-144.63788 c -1.1046,0 -2,0.8954 -2,2 l 0,16 c 0,1.1046 0.8954,2 2,2 1.1046,0 2,-0.8954 2,-2 l 0,-11.1875 19.21875,19.2187 c 0.78107,0.7811 2.03143,0.7811 2.8125,0 0.0103,-0.01 0.0213,-0.021 0.0312,-0.031 l 0.0312,0.031 22.625,-22.625 c 0.78105,-0.781 0.78106,-2.0314 0,-2.8124 -0.78109,-0.7811 -2.03146,-0.7811 -2.8125,0 l -21.25,21.25 -17.84365,-17.8438 11.1875,0 c 1.10457,0 2,-0.8954 2,-2 0,-1.1046 -0.89543,-2 -2,-2 l -16,0 z" style="text-indent:0;text-transform:none;direction:ltr;block-progression:tb;baseline-shift:baseline;color:#000000;enable-background:accumulate;" fill="#000000" fill-opacity="1" stroke="none" marker="none" visibility="visible" display="inline" overflow="visible"/></g></g></svg>