<?xml version="1.0" encoding="UTF-8" standalone="no"?>
<!-- Created with Inkscape (http://www.inkscape.org/) -->

<svg
   xmlns:dc="http://purl.org/dc/elements/1.1/"
   xmlns:cc="http://creativecommons.org/ns#"
   xmlns:rdf="http://www.w3.org/1999/02/22-rdf-syntax-ns#"
   xmlns:svg="http://www.w3.org/2000/svg"
   xmlns="http://www.w3.org/2000/svg"
   xmlns:sodipodi="http://sodipodi.sourceforge.net/DTD/sodipodi-0.dtd"
   xmlns:inkscape="http://www.inkscape.org/namespaces/inkscape"
   width="40"
   height="40"
   viewBox="0 0 10.583333 10.583334"
   version="1.1"
   id="svg8"
   inkscape:version="0.92.1 r15371"
   sodipodi:docname="loup2_little.svg">
  <defs
     id="defs2" />
  <sodipodi:namedview
     id="base"
     pagecolor="#ffffff"
     bordercolor="#666666"
     borderopacity="1.0"
     inkscape:pageopacity="0.0"
     inkscape:pageshadow="2"
     inkscape:zoom="11.2"
     inkscape:cx="29.174161"
     inkscape:cy="19.174842"
     inkscape:document-units="mm"
     inkscape:current-layer="layer1"
     showgrid="false"
     units="px"
     inkscape:window-width="1680"
     inkscape:window-height="1028"
     inkscape:window-x="1358"
     inkscape:window-y="-8"
     inkscape:window-maximized="1" />
  <metadata
     id="metadata5">
    <rdf:RDF>
      <cc:Work
         rdf:about="">
        <dc:format>image/svg+xml</dc:format>
        <dc:type
           rdf:resource="http://purl.org/dc/dcmitype/StillImage" />
        <dc:title></dc:title>
      </cc:Work>
    </rdf:RDF>
  </metadata>
  <g
     inkscape:label="Capa 1"
     inkscape:groupmode="layer"
     id="layer1"
     transform="translate(0,-286.41665)">
    <g
       id="g3685"
       transform="matrix(0.02581682,0,0,0.02581682,0.97091249,287.42586)">
      <title
         id="title3682">Layer 1</title>
      <path
         d="m 99.072,22.89 c -53.221,30.209 -72.17,98.517 -41.96,151.737 25.596,45.091 78.614,65.509 126.571,52.301 l 53.859,91.86 c 7.418,12.625 23.499,16.669 36.005,9.056 12.508,-7.614 16.716,-23.861 9.297,-36.485 L 229.74,201.128 C 266.545,166.832 276.592,110.269 250.736,64.719 220.527,11.499 152.292,-7.32 99.072,22.89 Z m 22.158,39.036 c 32.103,-18.223 72.248,-7.151 90.471,24.952 18.222,32.102 7.15,72.248 -24.952,90.47 -32.103,18.223 -72.248,7.151 -90.471,-24.952 -18.222,-32.102 -7.15,-72.248 24.952,-90.47 z"
         id="path12423"
         inkscape:connector-curvature="0"
         style="fill:#a5a5a5" />
    </g>
  </g>
</svg>
