<?xml version="1.0" encoding="UTF-8" standalone="no"?><!DOCTYPE svg PUBLIC "-//W3C//DTD SVG 1.1//EN" "http://www.w3.org/Graphics/SVG/1.1/DTD/svg11.dtd"><svg width="100%" height="100%" viewBox="0 0 117 117" version="1.1" xmlns="http://www.w3.org/2000/svg" xmlns:xlink="http://www.w3.org/1999/xlink" xml:space="preserve" xmlns:serif="http://www.serif.com/" style="fill-rule:evenodd;clip-rule:evenodd;stroke-linejoin:round;stroke-miterlimit:1.41421;"><rect id="Mesa-de-trabajo1" serif:id="Mesa de trabajo1" x="0" y="0" width="116.198" height="116.66" style="fill:none;"/><path d="M116.035,111.022l-36.534,-36.533c6.667,-7.867 10.8,-18 10.8,-29.067c0,-24.533 -20,-44.533 -44.533,-44.533c-24.533,0 -44.667,20 -44.667,44.533c0,24.534 20,44.534 44.534,44.534c11.066,0 21.2,-4.134 29.066,-10.8l36.667,36.533l4.667,-4.667Zm-108.267,-65.6c0,-20.933 17.067,-37.866 37.867,-37.866c20.8,0 38,16.933 38,37.866c0,20.934 -16.934,38 -37.867,38c-20.933,0 -38,-17.066 -38,-38Z" style="fill:#505050;fill-rule:nonzero;"/></svg>