<?xml version="1.0" encoding="UTF-8" standalone="no"?>
<!-- Created with Inkscape (http://www.inkscape.org/) -->

<svg
   xmlns:dc="http://purl.org/dc/elements/1.1/"
   xmlns:cc="http://creativecommons.org/ns#"
   xmlns:rdf="http://www.w3.org/1999/02/22-rdf-syntax-ns#"
   xmlns:svg="http://www.w3.org/2000/svg"
   xmlns="http://www.w3.org/2000/svg"
   xmlns:sodipodi="http://sodipodi.sourceforge.net/DTD/sodipodi-0.dtd"
   xmlns:inkscape="http://www.inkscape.org/namespaces/inkscape"
   width="210mm"
   height="297mm"
   viewBox="0 0 744.09448819 1052.3622047"
   id="svg9785"
   version="1.1"
   inkscape:version="0.91 r13725"
   sodipodi:docname="pdf.svg">
  <defs
     id="defs9787" />
  <sodipodi:namedview
     id="base"
     pagecolor="#ffffff"
     bordercolor="#666666"
     borderopacity="1.0"
     inkscape:pageopacity="0.0"
     inkscape:pageshadow="2"
     inkscape:zoom="0.35"
     inkscape:cx="-289.28571"
     inkscape:cy="520"
     inkscape:document-units="px"
     inkscape:current-layer="layer1"
     showgrid="false"
     inkscape:window-width="1920"
     inkscape:window-height="1005"
     inkscape:window-x="-9"
     inkscape:window-y="1041"
     inkscape:window-maximized="1" />
  <metadata
     id="metadata9790">
    <rdf:RDF>
      <cc:Work
         rdf:about="">
        <dc:format>image/svg+xml</dc:format>
        <dc:type
           rdf:resource="http://purl.org/dc/dcmitype/StillImage" />
        <dc:title></dc:title>
      </cc:Work>
    </rdf:RDF>
  </metadata>
  <g
     inkscape:label="Capa 1"
     inkscape:groupmode="layer"
     id="layer1">
    <path
       d="m 645.98998,501.47306 -80.96412,0 0,70.13821 75.68534,0 0,56.23006 -75.68534,0 0,122.98252 -47.76038,0 0,-306.01238 128.7245,0 0,56.66159 z m -40.88197,495.64778 -465.51514,0 0,-197.33633 465.51514,0 0,197.33633 z m -487.08729,-246.29699 0,-302.19511 c 14.64803,-3.55171 35.30611,-6.07443 64.37367,-6.07443 29.41034,0 50.31978,7.90009 64.41938,24.43053 13.36834,15.50144 22.50908,41.09376 22.50908,70.80209 0,29.87429 -6.94697,55.49981 -19.44693,72.86009 -16.27052,22.04059 -40.26497,32.03189 -68.46415,32.03189 -6.21571,0 -11.83727,-0.33194 -16.22483,-1.42866 l 0,109.57228 -47.16622,0 z M 485.93558,590.43208 c 0,58.58681 -14.71659,99.18266 -35.10044,123.87875 -22.0749,26.98644 -55.89564,39.56685 -97.07468,39.56685 -24.77141,0 -42.25308,-2.35808 -54.09034,-4.48115 l 0,-300.76779 c 17.48167,-3.81727 40.24212,-6.07443 64.41938,-6.07443 39.94504,0 65.9276,10.35643 86.1972,32.59618 21.91493,23.60069 35.64888,61.20911 35.64888,115.28159 M 139.59287,45.192974 l 326.78153,0 0,209.651176 c 0,11.41861 6.32996,20.3809 14.09959,20.3809 l 124.63402,0 0,102.73439 -465.51514,0 0,-332.766466 z m 511.05889,332.766466 -17.29886,0 0,-121.22325 c 0,-0.73026 -0.1097,-1.49505 -0.18281,-2.32356 0,-4.81308 -1.00548,-9.09506 -3.33637,-13.24427 L 491.12295,11.169467 l -0.0914,0 C 490.13942,9.5416529 489.22718,8.5484929 488.17508,7.5181615 487.9228,7.3322814 487.62663,7.05345 487.26101,6.6896472 c -0.82267,-0.4647114 -1.80438,-1.2268286 -2.74223,-1.7579258 -0.31992,0 -0.57038,-0.1858914 -0.75502,-0.1858914 -1.07495,-0.4647114 -2.17093,-0.6320057 -3.29067,-0.6320057 l -340.88113,0 c -15.60781,0 -28.24489,18.3229027 -28.24489,41.0937547 l 0,332.766461 -17.29885,0 c -22.303414,0 -40.333527,26.12342 -40.333527,58.35446 l 0,304.65144 c 0,32.39702 18.030113,58.78598 40.333527,58.78598 l 17.29885,0 0,208.45618 c 0,22.7377 12.63708,40.961 28.24489,40.961 l 465.51514,0 c 15.53927,0 28.2449,-18.2233 28.2449,-40.961 l 0,-208.45618 17.29886,0 c 22.2577,0 40.28781,-26.38896 40.28781,-58.78598 l 0,-304.65144 c 0,-32.23104 -18.03011,-58.35446 -40.28781,-58.35446"
       style="fill:#ffffff;fill-opacity:1;fill-rule:nonzero;stroke:none"
       id="path2654"
       inkscape:connector-curvature="0" />
  </g>
</svg>
