<?xml version="1.0" encoding="UTF-8" standalone="no"?><!DOCTYPE svg PUBLIC "-//W3C//DTD SVG 1.1//EN" "http://www.w3.org/Graphics/SVG/1.1/DTD/svg11.dtd"><svg width="100%" height="100%" viewBox="0 0 67 86" version="1.1" xmlns="http://www.w3.org/2000/svg" xmlns:xlink="http://www.w3.org/1999/xlink" xml:space="preserve" xmlns:serif="http://www.serif.com/" style="fill-rule:evenodd;clip-rule:evenodd;stroke-linejoin:round;stroke-miterlimit:1.41421;"><rect id="Mesa-de-trabajo1" serif:id="Mesa de trabajo1" x="0" y="0" width="66.736" height="85.374" style="fill:none;"/><clipPath id="_clip1"><rect x="0" y="0" width="66.736" height="85.374"/></clipPath><g clip-path="url(#_clip1)"><g><path d="M17.364,31.517c0.333,0.048 0.761,0.072 1.238,0.072c2.142,0 3.975,-0.522 5.211,-1.689c0.953,-0.904 1.477,-2.237 1.477,-3.808c0,-1.571 -0.689,-2.903 -1.714,-3.713c-1.07,-0.856 -2.666,-1.286 -4.902,-1.286c-2.214,0 -3.785,0.143 -4.902,0.334l0,15.826l3.593,0l0,-5.736l-0.001,0Zm0,-7.544c0.261,-0.072 0.761,-0.142 1.5,-0.142c1.808,0 2.832,0.881 2.832,2.356c0,1.642 -1.19,2.618 -3.119,2.618c-0.523,0 -0.903,-0.022 -1.213,-0.094l0,-4.738Z" style="fill-rule:nonzero;"/><path d="M38.888,35.349c1.546,-1.309 2.665,-3.426 2.665,-6.498c0,-2.832 -1.047,-4.807 -2.713,-6.044c-1.547,-1.167 -3.522,-1.715 -6.568,-1.715c-1.834,0 -3.572,0.119 -4.903,0.333l0,15.756c0.903,0.119 2.236,0.239 4.116,0.239c3.14,0 5.712,-0.667 7.403,-2.071Zm-7.879,-11.329c0.308,-0.071 0.832,-0.143 1.641,-0.143c3.119,0 5.07,1.762 5.047,5.094c0,3.832 -2.144,5.641 -5.427,5.617c-0.453,0 -0.953,0 -1.261,-0.072l0,-10.496Z" style="fill-rule:nonzero;"/><path d="M47.346,30.804l5.76,0l0,-2.952l-5.76,0l0,-3.665l6.163,0l0,-2.975l-9.804,0l0,16.041l3.641,0l0,-6.449Z" style="fill-rule:nonzero;"/><rect x="9.798" y="53.904" width="47.048" height="2.667"/><rect x="9.798" y="60.441" width="47.048" height="2.667"/><rect x="9.798" y="66.98" width="47.048" height="2.667"/><path d="M9.913,85.333l46.988,0c5.435,0 9.84,-4.405 9.84,-9.838l0,-65.656c0,-5.434 -4.405,-9.839 -9.839,-9.839l-46.989,0c-5.433,0 -9.839,4.405 -9.839,9.839l0,65.654c0,5.435 4.406,9.84 9.839,9.84Zm-7.172,-75.494c0,-3.955 3.217,-7.172 7.172,-7.172l46.988,0c3.956,0 7.173,3.217 7.173,7.172l0,65.654c0,3.956 -3.217,7.174 -7.172,7.174l-46.989,0c-3.955,0 -7.172,-3.218 -7.172,-7.172l0,-65.656Z" style="fill-rule:nonzero;"/></g></g></svg>