<?xml version="1.0" encoding="UTF-8" standalone="no"?>
<!-- Created with Inkscape (http://www.inkscape.org/) -->

<svg
   xmlns:dc="http://purl.org/dc/elements/1.1/"
   xmlns:cc="http://creativecommons.org/ns#"
   xmlns:rdf="http://www.w3.org/1999/02/22-rdf-syntax-ns#"
   xmlns:svg="http://www.w3.org/2000/svg"
   xmlns="http://www.w3.org/2000/svg"
   xmlns:sodipodi="http://sodipodi.sourceforge.net/DTD/sodipodi-0.dtd"
   xmlns:inkscape="http://www.inkscape.org/namespaces/inkscape"
   width="500"
   height="500"
   viewBox="0 0 500.00001 500.00001"
   id="svg6005"
   version="1.1"
   inkscape:version="0.91 r13725"
   sodipodi:docname="phone.svg">
  <defs
     id="defs6007" />
  <sodipodi:namedview
     id="base"
     pagecolor="#ffffff"
     bordercolor="#666666"
     borderopacity="1.0"
     inkscape:pageopacity="0.0"
     inkscape:pageshadow="2"
     inkscape:zoom="0.35"
     inkscape:cx="-289.28571"
     inkscape:cy="520"
     inkscape:document-units="px"
     inkscape:current-layer="layer1"
     showgrid="false"
     units="px"
     inkscape:window-width="1920"
     inkscape:window-height="1005"
     inkscape:window-x="-9"
     inkscape:window-y="1041"
     inkscape:window-maximized="1" />
  <metadata
     id="metadata6010">
    <rdf:RDF>
      <cc:Work
         rdf:about="">
        <dc:format>image/svg+xml</dc:format>
        <dc:type
           rdf:resource="http://purl.org/dc/dcmitype/StillImage" />
        <dc:title></dc:title>
      </cc:Work>
    </rdf:RDF>
  </metadata>
  <g
     inkscape:label="Capa 1"
     inkscape:groupmode="layer"
     id="layer1"
     transform="translate(0,-552.36216)">
    <path
       d="m 443.09501,953.17462 -63.55183,-76.1074 c -4.96801,-5.89401 -11.85011,-9.16274 -19.42041,-9.16274 -7.97892,0 -15.65676,3.73202 -21.07641,10.218 l -34.36745,41.1294 -9.26933,-6.15139 c -20.40971,-13.51248 -48.41122,-32.12109 -77.93971,-67.5109 -29.636,-35.44129 -45.18523,-69.0037 -56.54069,-93.48059 l -5.05404,-10.80998 34.38896,-41.18087 c 11.37697,-13.6669 11.78558,-35.38981 0.86026,-48.51622 L 127.57254,575.546 c -4.94651,-5.91975 -11.85011,-9.13701 -19.3989,-9.13701 -7.95742,0 -15.656767,3.70628 -21.097919,10.24374 l -15.592243,18.76305 -1.462448,2.85692 c -5.806764,8.90536 -10.559708,18.9432 -14.129796,29.85613 -3.290496,10.39817 -5.355132,20.30732 -6.344428,30.21647 -8.172487,81.53814 23.227067,156.3329 108.435974,258.2813 100.99472,120.8401 185.38639,130.2602 208.85003,130.2602 4.02172,0 6.45196,-0.2573 7.11866,-0.3088 8.66714,-1.2601 16.96867,-3.7835 25.33471,-7.6957 9.03274,-4.221 17.39879,-9.8576 24.81855,-16.8327 l 3.54858,-3.3201 14.60295,-17.1416 c 11.35545,-13.61544 11.74256,-35.28687 0.83789,-48.41328"
       style="fill:#ffffff;fill-opacity:1;fill-rule:nonzero;stroke:none"
       id="path260"
       inkscape:connector-curvature="0" />
  </g>
</svg>
