<?xml version="1.0" encoding="UTF-8" standalone="no"?>
<!-- Created with Inkscape (http://www.inkscape.org/) -->

<svg
   xmlns:dc="http://purl.org/dc/elements/1.1/"
   xmlns:cc="http://creativecommons.org/ns#"
   xmlns:rdf="http://www.w3.org/1999/02/22-rdf-syntax-ns#"
   xmlns:svg="http://www.w3.org/2000/svg"
   xmlns="http://www.w3.org/2000/svg"
   xmlns:sodipodi="http://sodipodi.sourceforge.net/DTD/sodipodi-0.dtd"
   xmlns:inkscape="http://www.inkscape.org/namespaces/inkscape"
   width="210mm"
   height="297mm"
   viewBox="0 0 744.09448819 1052.3622047"
   id="svg41497"
   version="1.1"
   inkscape:version="0.91 r13725"
   sodipodi:docname="waiting-room.svg">
  <defs
     id="defs41499" />
  <sodipodi:namedview
     id="base"
     pagecolor="#ffffff"
     bordercolor="#666666"
     borderopacity="1.0"
     inkscape:pageopacity="0.0"
     inkscape:pageshadow="2"
     inkscape:zoom="0.34158414"
     inkscape:cx="-120.57394"
     inkscape:cy="532.60451"
     inkscape:document-units="px"
     inkscape:current-layer="layer1"
     showgrid="false"
     inkscape:window-width="1920"
     inkscape:window-height="1005"
     inkscape:window-x="-9"
     inkscape:window-y="1041"
     inkscape:window-maximized="1"
     objecttolerance="20" />
  <metadata
     id="metadata41502">
    <rdf:RDF>
      <cc:Work
         rdf:about="">
        <dc:format>image/svg+xml</dc:format>
        <dc:type
           rdf:resource="http://purl.org/dc/dcmitype/StillImage" />
        <dc:title></dc:title>
      </cc:Work>
    </rdf:RDF>
  </metadata>
  <g
     inkscape:label="Capa 1"
     inkscape:groupmode="layer"
     id="layer1">
    <path
       d="m 161.25021,354.17748 c -10.81658,-11.47769 -16.07366,-25.97692 -14.7245,-40.97974 2.72159,-30.57218 32.89169,-54.13605 67.20232,-51.63908 16.58542,1.19519 31.70536,8.16238 42.52193,19.59809 10.81658,11.4567 16.02714,25.97692 14.7245,40.97974 -2.60528,29.08239 -29.89096,51.82792 -62.15459,51.82792 -1.72135,0 -3.37291,-0.0336 -5.04774,-0.18801 -16.63193,-1.19518 -31.70535,-8.1204 -42.52192,-19.59809 M 409.03116,534.08627 Z M 671.7227,707.1118 c -1.44221,-10.53345 -7.44366,-19.91283 -16.70172,-26.37559 L 490.2834,565.47678 c -7.81585,-5.43459 -17.14369,-8.30925 -26.96002,-8.30925 -0.95279,0 -1.86091,0.0839 -2.76811,0.1175 -0.34985,0 -0.67551,-0.0336 -1.00117,-0.0336 -3.04725,0 -6.07124,0.27194 -9.02545,0.85946 l -160.52725,30.15252 -9.9559,-40.93776 c 3.8614,0.98704 7.86236,1.51077 11.95638,1.51077 l 0.0372,0 0.093,0 c 1.3715,0.0839 2.72159,0.16786 4.14054,0.16786 l 112.60868,0.33573 0.13026,0 c 1.69902,0 3.32639,-0.13429 4.95469,-0.29376 21.91228,-2.24518 39.03271,-19.05253 39.07923,-39.34306 0.0372,-7.40699 -2.18657,-14.45726 -6.32711,-20.60527 l 45.56918,-86.07213 c 4.00097,-7.61682 0.46523,-16.72342 -7.97868,-20.33249 -8.46717,-3.60907 -18.49285,-0.39952 -22.49382,7.21814 L 418.921,470.88473 c -3.18682,-0.64963 -6.44342,-1.04915 -9.76981,-1.04915 l -98.9542,-0.25179 -68.08627,-59.90637 c -2.90768,-2.47599 -6.04797,-4.59527 -9.46741,-6.27391 -7.5367,-4.84706 -16.65519,-7.67976 -26.37848,-7.67976 -3.27986,0 -6.60625,0.33573 -9.81633,0.98704 -12.00291,2.39205 -22.26121,8.81284 -28.91398,18.12928 -6.58299,9.33742 -8.79283,20.43741 -6.16428,31.26462 l 47.6627,196.63137 c 2.67507,10.86918 9.97917,19.9548 19.84202,25.76709 -27.84395,-6.58866 -51.57063,-24.82285 -62.36394,-50.40109 L 63.276705,374.42688 c -3.279864,-7.82665 -13.026411,-11.81341 -21.749454,-8.77088 -8.769567,2.97958 -13.096196,11.79242 -9.769809,19.66104 L 134.96849,629.0132 c 18.77199,44.33701 65.92295,72.685 117.1214,72.685 7.28083,0 14.67797,-0.5657 22.07511,-1.78355 0.27914,0 0.55828,-0.0839 0.88394,-0.16787 l 158.87569,-33.32095 35.10153,130.28324 c 4.81512,17.8565 22.4473,30.32038 42.75454,30.32038 3.51248,0 7.04822,-0.35755 10.46765,-1.11125 11.44464,-2.49698 21.1214,-8.8758 27.23916,-17.94044 6.04798,-9.06464 7.90889,-19.74497 5.14078,-30.04761 l -22.16816,-82.35814 68.55149,47.94608 c 7.81585,5.43459 17.14369,8.35122 26.98328,8.35122 13.72425,0 26.40174,-5.60245 34.79913,-15.4015 7.18778,-8.3722 10.3746,-18.77975 8.90913,-29.35517 m -24.16864,-398.8652 -35.93894,0 c -9.30458,0 -16.84129,-6.86143 -16.84129,-15.25461 l 0,-52.03776 c 0,-8.45614 7.53671,-15.29658 16.84129,-15.29658 9.32784,0 16.91107,6.84044 16.91107,15.29658 l 0,36.78314 19.02787,0 c 9.37436,0 16.95759,6.86143 16.95759,15.25462 0,8.39318 -7.58323,15.25461 -16.95759,15.25461 M 611.59558,191.98083 c -61.73589,0 -111.93409,45.3232 -111.93409,101.012 0,55.68879 50.1982,101.01199 111.93409,101.01199 61.80567,0 112.0504,-45.3232 112.0504,-101.01199 0,-55.6888 -50.24473,-101.012 -112.0504,-101.012"
       style="fill:#ffffff;fill-opacity:1;fill-rule:nonzero;stroke:none"
       id="path33612"
       inkscape:connector-curvature="0" />
  </g>
</svg>
